<?xml version="1.0" encoding="UTF-8" standalone="no"?>
<!DOCTYPE svg PUBLIC "-//W3C//DTD SVG 1.1//EN" "http://www.w3.org/Graphics/SVG/1.1/DTD/svg11.dtd">
<svg width="100%" height="100%" viewBox="0 0 1024 1024" version="1.1" xmlns="http://www.w3.org/2000/svg" xmlns:xlink="http://www.w3.org/1999/xlink" xml:space="preserve" xmlns:serif="http://www.serif.com/" style="fill-rule:evenodd;clip-rule:evenodd;stroke-linejoin:round;stroke-miterlimit:2;">
    <path d="M527.05,302.96C527.025,302.987 527.012,303.023 527.012,303.06C527.012,303.142 527.078,303.209 527.16,303.21C532.333,303.05 538.277,302.947 544.99,302.9C559.25,302.8 598.253,302.777 662,302.83C672.013,302.837 681.827,303.747 691.44,305.56C693.167,305.887 696.337,306.807 700.95,308.32C710.21,311.36 718.82,317.99 724.61,326.24C731.557,336.14 735.11,347.153 735.27,359.28C735.59,383.39 723.17,405.95 708.54,425.29C695.85,442.08 683.09,458.01 673.31,470.73C649.61,501.57 622.343,536.507 591.51,575.54C590.97,576.227 581.387,588.383 562.76,612.01C547.887,630.877 537.95,643.44 532.95,649.7C531.557,651.447 531.61,653.28 533.11,655.2C533.318,655.466 533.605,655.659 533.93,655.75C535.897,656.323 537.817,656.61 539.69,656.61C582.35,656.663 616.787,656.603 643,656.43C649.46,656.39 654.53,656.72 659.75,653.75C666.06,650.17 671.48,642.75 676.09,636.11C693.883,610.417 706.103,582.137 712.75,551.27C715.77,537.243 717.5,524.987 717.94,514.5C718.473,501.64 718.433,492.243 717.82,486.31C717.18,480.183 716.92,475.93 717.04,473.55C717.173,470.977 718.287,468.337 720.38,465.63C737.82,443.05 747.057,431.123 748.09,429.85C749.857,427.65 751.673,425.737 753.54,424.11C753.781,423.905 754.123,423.865 754.4,424.01C756.173,424.917 757.333,426.137 757.88,427.67C762.267,440.01 765.447,452.913 767.42,466.38C769.9,483.26 771.013,497.213 770.76,508.24C770.633,513.767 770.177,521.433 769.39,531.24C768.197,546.167 765.367,562 760.9,578.74C753.833,605.22 743.333,629.46 729.4,651.46C716.88,671.227 702.207,689.033 685.38,704.88C679.847,710.093 673.25,715.997 665.59,722.59C664.45,723.57 659.063,727.693 649.43,734.96C644.037,739.027 638.497,742.933 632.81,746.68C618.01,756.42 608.55,762.507 604.43,764.94C587.397,774.993 577.63,780.803 575.13,782.37C553.263,796.07 533.74,810.63 516.56,826.05C510.253,831.717 503.33,838.787 495.79,847.26C489.94,853.83 484.77,862.04 480.61,867.85C479.223,869.79 477.52,870.483 475.5,869.93C475.187,869.846 474.905,869.668 474.69,869.42C470.77,864.99 467.87,858.18 466.52,854.24C459.773,834.507 450.167,816.863 437.7,801.31C426.08,786.83 411.13,774.16 393.78,761.74C388,757.6 379.097,751.08 367.07,742.18C343.397,724.653 321.8,704.753 302.28,682.48C288.213,666.427 275.987,648.98 265.6,630.14C256.627,613.86 249.613,597.217 244.56,580.21C230.58,533.2 228.64,482.59 240.66,434.88C251.73,390.99 275.26,350.18 306.18,316.9C329.9,291.37 356.03,269.84 385.14,249.89C386.353,249.057 405.127,236.083 441.46,210.97C445.6,208.11 454.443,201.533 467.99,191.24C479.443,182.527 488.607,175.02 495.48,168.72C506.727,158.393 512.79,152.797 513.67,151.93C516.56,149.07 521.66,152.92 524.09,155.56C539.783,172.66 549.073,192.977 551.96,216.51C552.49,220.87 552.93,227.33 552.66,232.49C551.307,258.27 543.19,281.3 528.31,301.58C528.063,301.913 527.643,302.373 527.05,302.96ZM480.62,802.18C483.233,798.713 485.403,795.853 487.13,793.6C491.803,787.513 497.283,781.247 503.57,774.8C525.677,752.1 550.58,733.18 578.28,718.04C586.107,713.76 593.597,709.333 600.75,704.76C600.83,704.719 600.88,704.636 600.88,704.547C600.88,704.415 600.772,704.307 600.64,704.307C600.627,704.307 600.613,704.308 600.6,704.31C592.53,704.94 583.5,704.37 575.45,704.36C534.87,704.3 502.077,704.233 477.07,704.16C471.963,704.14 467.497,702.783 463.67,700.09C451.57,691.54 449.7,675.81 458.74,664.25C465.587,655.503 472.097,647.173 478.27,639.26C518.3,587.95 575.4,516.35 625,453.37C644.447,428.677 660.017,408.963 671.71,394.23C676.13,388.66 679.96,382.5 681.88,375.64C681.98,375.281 682.037,374.915 682.05,374.55C682.283,367.483 679.27,362.097 673.01,358.39C672.727,358.225 672.409,358.126 672.08,358.1C670,357.95 667.43,357.09 664.38,357.09C485.787,357.123 389.993,357.12 377,357.08C376.147,357.073 375.453,357.003 374.92,356.87C374.383,356.736 374.003,356.25 374.003,355.696C374.003,355.426 374.093,355.163 374.26,354.95C379.48,348.31 385.35,343.47 393.97,336.04C397.543,332.96 401.163,330.05 404.83,327.31C424.15,312.89 436.32,303.73 441.34,299.83C452.413,291.217 461.293,283.42 467.98,276.44C476.147,267.913 483.01,258.177 488.57,247.23C488.585,247.198 488.591,247.162 488.587,247.126C488.577,247.022 488.487,246.945 488.389,246.956C488.352,246.959 488.318,246.975 488.29,247C480.67,253.047 470.983,260.42 459.23,269.12C450.763,275.38 440.757,282.2 429.21,289.58C418.843,296.2 408.743,302.893 398.91,309.66C376.81,324.873 357.407,342.38 340.7,362.18C329.26,375.753 319.71,389.707 312.05,404.04C300.357,425.94 292.94,448.757 289.8,472.49C286.607,496.637 287.137,520.65 291.39,544.53C295.377,566.93 303.137,588.383 314.67,608.89C322.94,623.59 333.17,637.25 344.13,649.38C358.27,665.033 374.213,679.767 391.96,693.58C400.72,700.4 413.31,708.67 421.17,715.08C428.137,720.76 432.783,724.697 435.11,726.89C446.71,737.817 456.14,749.04 463.4,760.56C471.3,773.08 476.89,786.923 480.17,802.09C480.195,802.205 480.297,802.288 480.414,802.288C480.496,802.288 480.573,802.247 480.62,802.18Z" style="fill:url(#_Linear1);fill-rule:nonzero;"/>
    <path d="M418.55,653.61C418.33,653.37 418.203,652.747 418.17,651.74C418.06,648.75 418.43,646.06 418.43,642.75C418.43,578.243 418.433,516.167 418.44,456.52C418.44,450.35 416.44,445.02 411.14,442.22C409.573,441.387 406.59,440.977 402.19,440.99C389.483,441.023 365.253,441.02 329.5,440.98C327.27,440.98 320.5,441.54 322.23,437.48C326.597,427.22 330.823,417.207 334.91,407.44C337.89,400.3 343.97,397.34 351.75,397.33C389.39,397.283 421.38,397.293 447.72,397.36C455.773,397.387 461.377,401.003 464.53,408.21C466.02,411.61 465.94,415.07 465.94,418.99C465.927,469.51 465.92,526.68 465.92,590.5C465.92,591.933 465.48,593.563 464.6,595.39C464.073,596.483 463.153,597.907 461.84,599.66C450.147,615.22 439.49,629.287 429.87,641.86C427.077,645.513 424.3,649.363 421.54,653.41C421.498,653.471 421.453,653.53 421.405,653.586C420.722,654.374 419.506,654.455 418.71,653.765C418.653,653.716 418.6,653.665 418.55,653.61Z" style="fill:url(#_Linear2);fill-rule:nonzero;"/>
    <path d="M513.36,530.72C513.353,530.427 513.333,529.147 513.3,526.88C513.133,515.127 513.1,478.333 513.2,416.5C513.2,415.073 513.567,413.01 514.3,410.31C516.56,402.04 523.71,397.31 532.24,397.31C540.76,397.323 569.8,397.33 619.36,397.33C619.362,397.33 619.363,397.33 619.365,397.33C620.341,397.33 621.145,398.134 621.145,399.11C621.145,399.153 621.143,399.197 621.14,399.24C621.087,399.973 620.69,400.787 619.95,401.68C618.61,403.293 611.157,412.633 597.59,429.7C595.34,432.53 592.74,436.29 589.37,439.13C587.92,440.36 584.53,440.87 582.43,440.89C573.79,441.01 565.93,440.08 562.02,446.79C560.86,448.79 560.29,452.357 560.31,457.49C560.33,462.05 560.25,466.89 560.07,472.01C559.92,476.31 558.9,478.47 556.08,481.93C546.66,493.497 535.21,507.69 521.73,524.51C519.61,527.16 517.99,529.98 515.81,531.81C515.541,532.037 515.201,532.161 514.849,532.161C514.05,532.161 513.386,531.519 513.36,530.72Z" style="fill:url(#_Linear3);fill-rule:nonzero;"/>
    <defs>
        <linearGradient id="_Linear1" x1="0" y1="0" x2="1" y2="0" gradientUnits="userSpaceOnUse" gradientTransform="matrix(20.6452,-452.497,452.497,20.6452,483.406,790.252)"><stop offset="0" style="stop-color:rgb(255,248,244);stop-opacity:1"/><stop offset="1" style="stop-color:rgb(248,177,149);stop-opacity:1"/></linearGradient>
        <linearGradient id="_Linear2" x1="0" y1="0" x2="1" y2="0" gradientUnits="userSpaceOnUse" gradientTransform="matrix(20.6452,-452.497,452.497,20.6452,483.406,790.252)"><stop offset="0" style="stop-color:rgb(255,248,244);stop-opacity:1"/><stop offset="1" style="stop-color:rgb(248,177,149);stop-opacity:1"/></linearGradient>
        <linearGradient id="_Linear3" x1="0" y1="0" x2="1" y2="0" gradientUnits="userSpaceOnUse" gradientTransform="matrix(20.6452,-452.497,452.497,20.6452,483.406,790.252)"><stop offset="0" style="stop-color:rgb(255,248,244);stop-opacity:1"/><stop offset="1" style="stop-color:rgb(248,177,149);stop-opacity:1"/></linearGradient>
    </defs>
</svg>
